<?xml version="1.0" encoding="UTF-8"?>
<svg version="1.1" xmlns="http://www.w3.org/2000/svg" width="256" height="256">
<path d="M0 0 C0.80218964 0.00087616 1.60437927 0.00175232 2.43087769 0.00265503 C14.21921801 0.04519733 25.1920896 0.55662621 36.4375 4.375 C37.19691895 4.61637695 37.95633789 4.85775391 38.73876953 5.10644531 C71.56326517 15.63093575 98.63209944 37.91351656 114.78417969 68.47607422 C118.70422536 76.19145375 121.91779617 84.08956817 124.4375 92.375 C124.83066406 93.56609375 125.22382813 94.7571875 125.62890625 95.984375 C131.68389376 116.50862385 131.24114441 144.13310142 124.4375 164.375 C124.22319336 165.03725586 124.00888672 165.69951172 123.78808594 166.38183594 C122.22711803 171.14653711 120.42650881 175.77356171 118.4375 180.375 C118.01259277 181.36064941 118.01259277 181.36064941 117.57910156 182.36621094 C107.5344221 205.10825316 90.35627005 224.08149753 69.4375 237.375 C68.34179688 238.08140625 67.24609375 238.7878125 66.1171875 239.515625 C56.7290339 245.22257684 46.89769254 249.10271664 36.4375 252.375 C35.72625977 252.6023584 35.01501953 252.8297168 34.28222656 253.06396484 C13.10441309 259.51046352 -14.52419142 259.03945848 -35.5625 252.375 C-36.32449707 252.14425781 -37.08649414 251.91351563 -37.87158203 251.67578125 C-55.05266331 246.35137156 -71.36378645 237.68751422 -84.5625 225.375 C-85.42004883 224.58681885 -85.42004883 224.58681885 -86.29492188 223.78271484 C-102.7656142 208.51604555 -114.19028786 190.89035999 -121.875 169.8125 C-122.10550049 169.18931885 -122.33600098 168.5661377 -122.57348633 167.92407227 C-127.04826676 154.946716 -128.1111257 142.16289158 -128 128.5625 C-127.99695862 127.77096527 -127.99391724 126.97943054 -127.99078369 126.16390991 C-127.9242822 114.45920365 -127.28663898 103.55308534 -123.5625 92.375 C-123.12238268 90.93750403 -122.68227893 89.5000039 -122.2421875 88.0625 C-115.54170655 67.06625791 -103.51516032 49.54948176 -87.5625 34.375 C-86.8921875 33.72144531 -86.221875 33.06789062 -85.53125 32.39453125 C-62.25112346 10.43713917 -31.60362228 -0.08404463 0 0 Z " fill="#009393" transform="translate(127.5625,-0.375)"/>
<path d="M0 0 C0.91970581 -0.01004562 1.83941162 -0.02009125 2.7869873 -0.03044128 C3.80411804 -0.03627228 4.82124878 -0.04210327 5.86920166 -0.04811096 C7.46671265 -0.06278664 7.46671265 -0.06278664 9.09649658 -0.07775879 C12.63823175 -0.10779345 16.17992895 -0.12912073 19.72174072 -0.14796448 C20.92816475 -0.1545363 22.13458878 -0.16110813 23.37757111 -0.1678791 C29.76344124 -0.20050841 36.14929442 -0.22495029 42.53521729 -0.24440002 C47.82973429 -0.26222093 53.12371948 -0.29704977 58.41802979 -0.34693909 C64.79939373 -0.40701165 71.18026401 -0.43785863 77.56189728 -0.44757271 C79.99723292 -0.45615116 82.43255456 -0.47502745 84.86772919 -0.50431633 C88.27505898 -0.54309021 91.68045486 -0.5442829 95.08795166 -0.53639221 C96.09698547 -0.55639282 97.10601929 -0.57639343 98.14562988 -0.59700012 C104.82225643 -0.52748503 104.82225643 -0.52748503 107.43877316 1.43999863 C108.7875824 3.02081299 108.7875824 3.02081299 110.73736572 6.16062927 C111.34652832 7.12887634 111.95569092 8.09712341 112.58331299 9.0947113 C113.15106445 10.10904236 113.71881592 11.12337341 114.30377197 12.16844177 C115.27153564 13.88221008 115.27153564 13.88221008 116.2588501 15.63059998 C116.93943029 16.8488081 117.619764 18.06715396 118.29986572 19.28562927 C119.71413886 21.80464937 121.13270297 24.3212185 122.55377197 26.83641052 C122.90613922 27.46075485 123.25850647 28.08509918 123.62155151 28.72836304 C125.82050926 32.60440754 128.09639759 36.41986655 130.45220947 40.20359802 C131.01029297 41.10255798 131.56837646 42.00151794 132.14337158 42.92771912 C133.17688149 44.57810575 134.22259127 46.22093936 135.28253174 47.85447693 C138.11137019 52.3891501 139.92517104 55.68558912 138.73736572 61.16062927 C136.71528975 64.15887985 134.32223932 66.64201799 131.73736572 69.16062927 C131.20594971 69.6793158 130.67453369 70.19800232 130.12701416 70.73240662 C128.47646655 72.29529158 126.7977156 73.82286237 125.11236572 75.34812927 C119.3703486 80.62011086 113.80902939 86.05388885 108.31549072 91.58250427 C107.66396027 92.23781631 107.01242981 92.89312836 106.34115601 93.56829834 C103.02466934 96.90761783 99.71607792 100.25446016 96.41461182 103.60862732 C95.18117305 104.85394716 93.94761698 106.09915084 92.71392822 107.34422302 C92.14063782 107.9310083 91.56734741 108.51779358 90.97668457 109.12236023 C89.60103111 110.5067028 88.17372269 111.8393778 86.73736572 113.16062927 C86.07736572 113.16062927 85.41736572 113.16062927 84.73736572 113.16062927 C84.73736572 113.82062927 84.73736572 114.48062927 84.73736572 115.16062927 C83.38726807 116.48728943 83.38726807 116.48728943 81.44830322 118.07469177 C77.87873372 121.10937646 74.51153771 124.29636577 71.21392822 127.62156677 C70.49919342 128.34125641 70.49919342 128.34125641 69.77001953 129.07548523 C68.29880693 130.5602432 66.83017524 132.0475074 65.36236572 133.53562927 C63.39910002 135.52548549 61.43252741 137.51198863 59.46392822 139.49656677 C58.60364014 140.36845642 57.74335205 141.24034607 56.85699463 142.13865662 C54.16252579 144.70898498 53.21694821 145.10338125 49.47930908 145.54954529 C44.8167782 145.06494871 42.90978982 143.22758281 39.86627197 139.93797302 C39.07723732 139.13052391 39.07723732 139.13052391 38.27226257 138.3067627 C36.59747058 136.58636243 34.94839615 134.84367466 33.29986572 133.09812927 C31.65005984 131.38290298 29.99523108 129.67270412 28.33818054 127.96447754 C27.31204097 126.90325577 26.2908124 125.83725105 25.27583313 124.76535034 C22.5803108 121.94180968 19.80062301 119.30575072 16.84454346 116.75462341 C12.71008825 113.18431553 8.8554929 109.38983347 5.01861572 105.50437927 C4.31643921 104.79841614 3.6142627 104.092453 2.89080811 103.36509705 C-0.07647194 100.38165552 -3.03768791 97.39222217 -5.99945068 94.40330505 C-8.17881893 92.20572348 -10.36128375 90.01124989 -12.54388428 87.81687927 C-13.19933228 87.15313293 -13.85478027 86.4893866 -14.53009033 85.80552673 C-18.93579134 81.37688083 -23.52350923 77.22842136 -28.26263428 73.16062927 C-30.30156919 71.3817268 -32.28443578 69.57219537 -34.26263428 67.72312927 C-35.68575928 66.42568787 -35.68575928 66.42568787 -37.13763428 65.10203552 C-39.36712111 62.01599952 -40.01242503 60.08516478 -39.74749756 56.26976013 C-38.81296001 52.20456885 -36.54051248 49.05617721 -34.20013428 45.66062927 C-33.09972809 43.99622102 -32.00084486 42.33080516 -30.90325928 40.66453552 C-30.31480225 39.78168884 -29.72634521 38.89884216 -29.12005615 37.98924255 C-25.15157774 31.9457632 -21.40358006 25.76043272 -17.60418701 19.60984802 C-5.43157899 0.04643293 -5.43157899 0.04643293 0 0 Z " fill="#FBFDFD" transform="translate(78.26263427734375,64.83937072753906)"/>
<path d="M0 0 C25.74 0 51.48 0 78 0 C78 4.62 78 9.24 78 14 C68.43 14 58.86 14 49 14 C49 17.3 49 20.6 49 24 C49.85980469 24.03738281 50.71960938 24.07476562 51.60546875 24.11328125 C77.55658199 25.55658199 77.55658199 25.55658199 85 33 C85.18020629 35.47562082 85.27795445 37.8969328 85.3125 40.375 C85.35600586 41.40367187 85.35600586 41.40367187 85.40039062 42.453125 C85.43930615 45.53044526 85.46359872 47.46367991 83.40625 49.84375 C80.38828874 51.29393917 77.41710943 52.23624508 74.1875 53.125 C73.00542969 53.45757812 71.82335937 53.79015625 70.60546875 54.1328125 C63.0816301 55.9424465 56.97063283 56 49 56 C49 64.25 49 72.5 49 81 C42.73 81 36.46 81 30 81 C29.67 73.08 29.34 65.16 29 57 C27.02 56.9175 25.04 56.835 23 56.75 C17.36534073 56.33770786 11.99763447 55.54976845 6.5 54.25 C5.84257813 54.10530273 5.18515625 53.96060547 4.5078125 53.81152344 C-0.55771639 52.53221895 -3.5141018 50.78695304 -7 47 C-8.10948735 42.25204677 -7.86039447 37.78777331 -7 33 C-4.5625 30.3125 -4.5625 30.3125 -1 29 C-0.36384766 28.75491699 0.27230469 28.50983398 0.92773438 28.25732422 C6.9445085 26.06877151 12.7005868 25.29506683 19.0625 24.8125 C20.50399414 24.6897168 20.50399414 24.6897168 21.97460938 24.56445312 C24.31559461 24.36645935 26.65770324 24.18182212 29 24 C29.33 20.7 29.66 17.4 30 14 C20.1 14 10.2 14 0 14 C0 9.38 0 4.76 0 0 Z " fill="#059595" transform="translate(89,88)"/>
<path d="M0 0 C0.66 0.33 1.32 0.66 2 1 C1.34 2.98 0.68 4.96 0 7 C0.70125 6.73445313 1.4025 6.46890625 2.125 6.1953125 C13.69475328 1.88809457 22.78871173 0.73324856 35 1 C35 4.3 35 7.6 35 11 C41.6 11 48.2 11 55 11 C55 7.37 55 3.74 55 0 C67.61914918 0.30225507 78.21762553 2.20534761 90 7 C90 5.02 90 3.04 90 1 C90.33 1 90.66 1 91 1 C91.1079859 3.43868168 91.18726589 5.87259133 91.25 8.3125 C91.28351563 9.00279297 91.31703125 9.69308594 91.3515625 10.40429688 C91.44959536 15.47749729 91.44959536 15.47749729 89.41015625 17.84765625 C86.39001536 19.29164582 83.41647011 20.23642101 80.1875 21.125 C79.00542969 21.45757812 77.82335937 21.79015625 76.60546875 22.1328125 C69.0816301 23.9424465 62.97063283 24 55 24 C55 32.25 55 40.5 55 49 C48.73 49 42.46 49 36 49 C35.67 41.08 35.34 33.16 35 25 C33.02 24.9175 31.04 24.835 29 24.75 C23.36534073 24.33770786 17.99763447 23.54976845 12.5 22.25 C11.84257813 22.10530273 11.18515625 21.96060547 10.5078125 21.81152344 C5.44302226 20.5324055 2.46515998 18.80903082 -1 15 C-1.62109375 11.484375 -1.62109375 11.484375 -1.4375 7.75 C-1.39496094 6.50734375 -1.35242188 5.2646875 -1.30859375 3.984375 C-1 1 -1 1 0 0 Z " fill="#079595" transform="translate(83,120)"/>
<path d="M0 0 C12.4545829 0.29831336 24.19039577 1.09605569 35 8 C30.74092588 13.26120921 23.50409564 14.58598394 17.15234375 15.6640625 C16.41765366 15.79019928 15.68296356 15.91633606 14.92601013 16.04629517 C6.80779616 17.33539692 -1.23494187 17.46284835 -9.4375 17.375 C-10.19770447 17.37101196 -10.95790894 17.36702393 -11.7411499 17.36291504 C-26.33338974 17.27326753 -40.85315598 17.06034216 -54 10 C-54 9.01 -54 8.02 -54 7 C-43.34397822 0.78398729 -31.96208851 0.59013148 -20 1 C-20 4.3 -20 7.6 -20 11 C-13.4 11 -6.8 11 0 11 C0 7.37 0 3.74 0 0 Z " fill="#F6FBFB" transform="translate(138,120)"/>
</svg>
